<?xml version="1.0" encoding="UTF-8" standalone="no"?>
<!DOCTYPE svg PUBLIC "-//W3C//DTD SVG 1.1//EN" "http://www.w3.org/Graphics/SVG/1.1/DTD/svg11.dtd">
<svg width="100%" height="100%" viewBox="0 0 363 92" version="1.1" xmlns="http://www.w3.org/2000/svg" xmlns:xlink="http://www.w3.org/1999/xlink" xml:space="preserve" xmlns:serif="http://www.serif.com/" style="fill-rule:evenodd;clip-rule:evenodd;stroke-linejoin:round;stroke-miterlimit:2;">
    <g id="XMLID_87_" transform="matrix(1,0,0,1,-239.48,-252.11)">
        <path id="XMLID_124_" d="M294.25,289.58L294.25,283.28L289.15,283.39C289.38,279.96 289.51,277.51 289.55,276.06L289.84,271.08L260.1,271.19C260.78,270.05 261.5,268.94 262.22,267.86L292.81,268.04L292.81,261.68L265.54,261.91C266.22,260.77 266.91,259.47 267.6,258.02C265.88,257.75 263.6,257 260.78,255.78C258.57,262.77 255.13,268.02 250.47,271.53C252.3,272.91 253.98,274.61 255.51,276.64C256.69,275.46 257.97,273.98 259.35,272.23C259.35,275.66 258.99,279.39 258.26,283.4L252.41,283.29L252.41,289.59L257.68,289.47C257.1,293.94 256.24,298.28 255.1,302.47C257.62,302.36 266.34,302.29 281.23,302.25C280.89,303.17 280.22,303.8 279.22,304.14C277.81,304.52 275.09,304.56 271.09,304.26C272.47,306.78 273.31,309.11 273.61,311.25C277.96,311.09 281.09,310.64 283.01,309.87C285.34,308.92 287.1,306.38 288.28,302.25C289.81,302.25 291.37,302.29 292.97,302.37L292.97,296.3L288.56,296.47C288.6,294.07 288.76,291.74 289.02,289.48L294.25,289.58ZM265.61,277.15L272.08,277.15C271.12,277.95 269.86,278.75 268.29,279.55L272.08,283.38L264.91,283.38L265.61,277.15ZM262.97,296.45L264.17,289.46L271.62,289.46C269.98,290.38 268.74,291.01 267.9,291.36C270.11,293.57 271.64,295.27 272.49,296.45L262.97,296.45ZM282.17,296.45L275.46,296.45L277.46,295.19C277.84,295.04 278.3,294.79 278.84,294.45C277.46,292.85 275.96,291.19 274.31,289.46L282.68,289.46C282.57,291.91 282.39,294.25 282.17,296.45M282.91,283.39L276.32,283.39C277.04,282.82 277.8,282.28 278.56,281.79C277.18,280.3 275.71,278.76 274.15,277.16L283.13,277.16L282.91,283.39Z" style="fill:rgb(20,58,132);fill-rule:nonzero;"/>
        <path id="XMLID_123_" d="M250.99,279.32C249.43,281.34 248.42,282.88 247.96,283.9C245.4,281.27 242.57,278.97 239.48,277.03C240.81,275.69 242.11,273.92 243.37,271.7C247.46,274.72 250.26,276.87 251.79,278.17C251.49,278.6 251.23,278.98 250.99,279.32" style="fill:rgb(20,58,132);fill-rule:nonzero;"/>
        <path id="XMLID_122_" d="M253.29,290.67C250.08,299.38 247.44,305.82 245.38,309.98C243.85,308 241.95,306.18 239.65,304.54C240.79,303.13 242.23,300.59 243.95,296.92C245.97,292.15 247.16,288.65 247.5,286.44C251.09,289.14 253.02,290.56 253.29,290.67" style="fill:rgb(20,58,132);fill-rule:nonzero;"/>
        <path id="XMLID_121_" d="M252.89,265.18C252.35,265.94 251.85,266.69 251.39,267.42C250.94,268.06 250.63,268.5 250.48,268.73C248.14,266.25 245.26,263.8 241.83,261.4C243.59,259.8 244.98,258.07 246.02,256.25C248.73,258.27 251.53,260.54 254.44,263.07C253.97,263.43 253.46,264.15 252.89,265.18" style="fill:rgb(20,58,132);fill-rule:nonzero;"/>
        <path id="XMLID_120_" d="M349.62,282.19L356.84,282.48L356.84,275.55L334.38,275.77L334.9,266.09L354.04,266.26L354.04,259.28C339.21,259.62 324,259.62 308.38,259.28L308.38,266.26L327.57,266.09C327.57,267.35 327.41,270.58 327.11,275.77L305.91,275.55L305.91,282.48C310.08,282.32 316.97,282.23 326.59,282.19C325.67,287.7 323.44,292.1 319.89,295.43C318.13,296.95 315.99,298.48 313.47,300.02C311.18,301.27 308.28,302.35 304.77,303.23C306.14,304.94 307.58,307.34 309.06,310.39C316.63,306.84 322.24,303.34 325.91,299.91C328.66,297.12 330.7,293.96 332.04,290.45C336.85,299.73 344.43,306.36 354.78,310.33C355.7,307.32 356.86,304.85 358.27,302.94C352.39,301.91 346.99,298.69 342.06,293.26C340.2,290.97 338.8,288.95 337.88,287.19C337.19,286.05 336.46,284.38 335.7,282.2L349.62,282.2L349.62,282.19Z" style="fill:rgb(20,58,132);fill-rule:nonzero;"/>
        <path id="XMLID_115_" d="M524.39,297.55L540.66,297.66L540.66,291.47L518.14,291.59L518.14,289.59L537.85,289.71L537.85,284.1L519,284.19L519,282.53L535.15,282.65L535.15,277.15L519,277.26L519,275.6C526.6,275.6 531.96,275.66 535.09,275.78L535.09,270.23L519,270.33L519,268.62L537.1,268.73L537.1,262.66L519.22,262.78C519.56,262.55 519.95,262.32 520.36,262.1C520.25,261.87 519.89,261.3 519.28,260.38L516.13,255.51C514.18,256.77 512.45,257.63 510.92,258.08C511.83,259.58 512.75,261.14 513.67,262.78L504.09,262.78L507.65,258.88C505.59,257.97 503.43,256.73 501.18,255.16C499.68,257.91 497.34,260.83 494.13,263.92C491.49,266.1 488.96,267.71 486.51,268.73C487.76,270.57 488.96,272.67 490.06,275.04C492.04,273.86 494.15,272.4 496.36,270.69L496.36,285.92C496.25,287.52 496.17,289.13 496.13,290.73L502.38,290.73L502.38,289.59L511.43,289.59L511.43,291.59L488.12,291.47L488.12,297.66C489.37,297.62 495.48,297.58 506.45,297.55C499.8,301.71 493.51,303.91 487.6,304.13C489.55,306.88 490.87,309.08 491.55,310.72C498.12,309 504.75,306.05 511.43,301.84L511.32,310.32L518.25,310.32L518.13,300.52C523.28,304.42 528.33,307.37 533.26,309.4L536.93,310.84C538.19,308.55 539.58,306.47 541.11,304.59C535.11,303.68 529.54,301.32 524.39,297.55M512.47,284.19L502.39,284.19L502.39,282.53L512.47,282.53L512.47,284.19ZM512.47,277.26L502.39,277.26L502.39,275.6L512.47,275.6L512.47,277.26ZM512.47,270.33L502.39,270.33L502.39,268.67L512.47,268.67L512.47,270.33Z" style="fill:rgb(20,58,132);fill-rule:nonzero;"/>
        <path id="XMLID_114_" d="M578.32,293.48C578.32,293.93 578.2,294.28 577.97,294.51C577.4,294.89 575.66,294.95 572.76,294.69C573.72,296.33 574.26,298.62 574.36,301.56C579.75,301.56 583.13,300.93 584.5,299.67C584.88,299.1 585.1,298.26 585.14,297.16L585.14,279.28L593.84,279.4L593.84,273.04C590.75,273.15 587.81,273.21 585.02,273.21C585.02,271.92 585.08,269.64 585.2,266.4L578.21,266.4L578.33,273.21L562.06,273.04L562.06,279.4L573.11,279.28C571.5,282.64 569.75,285.53 567.84,287.93C566.23,289.88 564.01,291.71 561.14,293.43C563.09,295.3 564.47,297.15 565.27,298.98C569.85,295.43 574.21,290.16 578.33,283.17L578.33,293.48L578.32,293.48Z" style="fill:rgb(20,58,132);fill-rule:nonzero;"/>
        <path id="XMLID_111_" d="M601.99,259.1L554.72,259.16C554.33,259.12 553.97,259.1 553.62,259.1L553.9,302.36L553.73,309.58L560.78,309.58L560.78,308.83L595.15,308.83L595.15,309.58L601.97,309.58L601.79,263.75C601.81,262.21 601.87,260.67 601.99,259.1M595.16,302.7L560.79,302.7L560.79,265.35L595.16,265.35L595.16,302.7Z" style="fill:rgb(20,58,132);fill-rule:nonzero;"/>
        <path id="XMLID_93_" d="M239.48,342.86L239.48,322.59L243.6,322.59L243.6,330.7L251.71,330.7L251.71,322.59L255.83,322.59L255.83,342.86L251.71,342.86L251.71,334.13L243.6,334.13L243.6,342.86L239.48,342.86ZM260.06,342.86L268.03,322.59L272.64,322.59L280.65,342.86L276.12,342.86L274.42,338.23L266.05,338.23L264.33,342.86L260.06,342.86ZM267.29,334.94L273.18,334.94L270.24,326.63L267.29,334.94ZM284.49,322.58L288.61,322.58L288.61,342.85L284.49,342.85L284.49,322.58ZM308.89,322.61L308.89,326.06L303,326.06L303,342.86L298.88,342.86L298.88,326.06L293.13,326.06L293.13,322.61L308.89,322.61ZM313.19,322.58L317.31,322.58L317.31,342.85L313.19,342.85L313.19,322.58ZM321.2,342.86L329.17,322.59L333.78,322.59L341.79,342.86L337.26,342.86L335.56,338.23L327.19,338.23L325.47,342.86L321.2,342.86ZM328.43,334.94L334.32,334.94L331.38,326.63L328.43,334.94ZM345.83,342.86L345.83,322.59L350.77,322.59L358.78,338.13L358.78,322.59L362.46,322.59L362.46,342.86L357.5,342.86L349.49,327.32L349.49,342.86L345.83,342.86ZM515.59,323.18L515.32,326.83C514.74,326.53 513.92,326.25 512.84,326C511.77,325.75 510.82,325.62 509.99,325.62C508.65,325.62 507.43,325.91 506.31,326.48C505.2,327.05 504.36,327.88 503.78,328.97C503.21,330.06 502.92,331.3 502.92,332.7C502.92,334.12 503.22,335.37 503.81,336.45C504.4,337.53 505.24,338.34 506.35,338.86C507.46,339.39 508.6,339.65 509.78,339.65C510.15,339.65 510.59,339.61 511.1,339.54C511.61,339.47 511.99,339.39 512.25,339.3L512.25,334.37L507.96,334.37L507.96,331.12L516.15,331.12L516.15,341.94C515.08,342.3 513.93,342.56 512.68,342.75C511.43,342.94 510.29,343.03 509.25,343.03C507.77,343.03 506.37,342.83 505.06,342.41C503.75,341.99 502.6,341.33 501.61,340.42C500.62,339.51 499.86,338.38 499.33,337.06C498.8,335.73 498.54,334.27 498.54,332.68C498.54,330.67 498.97,328.9 499.83,327.37C500.68,325.83 502.01,324.61 503.8,323.7C505.6,322.79 507.68,322.34 510.03,322.34C512.04,322.34 513.9,322.62 515.59,323.18M522,322.58L527.78,322.58C529.44,322.58 530.54,322.61 531.08,322.67C531.89,322.76 532.56,322.94 533.09,323.2C533.62,323.46 534.11,323.82 534.56,324.3C535.01,324.77 535.35,325.32 535.58,325.93C535.81,326.54 535.92,327.2 535.92,327.89C535.92,328.68 535.79,329.37 535.52,329.96C535.25,330.55 534.93,331.04 534.55,331.42C534.17,331.8 533.78,332.09 533.36,332.29C532.94,332.5 532.42,332.65 531.79,332.75C532.15,332.77 532.52,332.94 532.89,333.27C533.26,333.59 533.59,334.08 533.86,334.71L534.33,335.8L537.24,342.86L532.67,342.86L530.47,337.14C530.21,336.47 530.02,336.03 529.9,335.8C529.69,335.4 529.49,335.1 529.28,334.91C529.08,334.72 528.85,334.59 528.6,334.51C528.22,334.41 527.68,334.35 526.98,334.35C526.74,334.35 526.44,334.37 526.11,334.39L526.11,342.84L522,342.84L522,322.58ZM526.12,325.76L526.12,331.26L527.92,331.26C529.22,331.26 530.17,330.99 530.78,330.43C531.38,329.88 531.69,329.17 531.69,328.31C531.69,327.57 531.42,326.96 530.89,326.48C530.35,326 529.56,325.76 528.5,325.76L526.12,325.76ZM540.68,332.62C540.68,331.1 540.9,329.69 541.35,328.37C541.79,327.06 542.44,325.95 543.28,325.05C544.12,324.15 545.07,323.47 546.12,323.01C547.46,322.43 548.97,322.14 550.64,322.14C552.58,322.14 554.28,322.54 555.75,323.32C557.21,324.11 558.36,325.35 559.2,327.04C560.03,328.72 560.45,330.6 560.45,332.66C560.45,334.72 560.05,336.58 559.23,338.24C558.42,339.89 557.24,341.15 555.7,342C554.16,342.85 552.43,343.28 550.51,343.28C548.63,343.28 546.92,342.86 545.37,342C543.83,341.15 542.66,339.92 541.86,338.3C541.07,336.67 540.68,334.79 540.68,332.62M550.59,340.09C552.08,340.09 553.3,339.51 554.25,338.36C555.46,336.94 556.06,335.06 556.06,332.7C556.06,331.09 555.79,329.7 555.24,328.53C554.69,327.36 554.01,326.52 553.2,326.02C552.39,325.52 551.5,325.28 550.55,325.28C549.04,325.28 547.8,325.85 546.84,327C545.65,328.42 545.06,330.34 545.06,332.76C545.06,334.32 545.31,335.66 545.81,336.77C546.3,337.88 546.97,338.71 547.81,339.27C548.65,339.81 549.58,340.09 550.59,340.09M565.86,322.58L569.98,322.58L569.98,334.51C569.98,335.57 570.05,336.39 570.2,336.98C570.36,337.57 570.6,338.08 570.96,338.51C571.31,338.94 571.72,339.29 572.19,339.54C572.65,339.8 573.3,339.93 574.13,339.93C575.49,339.93 576.54,339.52 577.28,338.69C578.02,337.86 578.39,336.47 578.39,334.51L578.39,322.58L582.35,322.58L582.35,334.51C582.35,336.01 582.24,337.22 582.02,338.12C581.8,339.02 581.48,339.75 581.09,340.3C580.69,340.84 580.17,341.34 579.53,341.78C578.89,342.22 578.19,342.55 577.44,342.75C576.37,343.05 575.23,343.19 574.02,343.19C572.81,343.19 571.73,343.05 570.77,342.79C569.82,342.52 569.02,342.14 568.39,341.67C567.76,341.19 567.27,340.67 566.92,340.1C566.56,339.53 566.29,338.75 566.08,337.78C565.94,337.11 565.87,335.91 565.87,334.17L565.87,322.58L565.86,322.58ZM588.33,342.88L588.33,322.59L592.79,322.59C594.53,322.59 595.68,322.62 596.23,322.69C597.21,322.83 598.02,323.05 598.68,323.36C599.34,323.68 599.92,324.11 600.43,324.65C600.94,325.2 601.32,325.82 601.59,326.53C601.85,327.23 601.99,327.99 601.99,328.81C601.99,329.72 601.83,330.56 601.5,331.31C601.18,332.06 600.75,332.71 600.23,333.26C599.7,333.8 599.12,334.22 598.48,334.5C597.84,334.78 597.09,334.99 596.23,335.12C595.71,335.2 595.02,335.23 594.18,335.21L592.46,335.18L592.46,342.88L588.33,342.88ZM592.45,325.69L592.45,332C592.88,332.01 593.16,332.02 593.3,332.02C594.3,332.02 595.06,331.94 595.58,331.78C595.9,331.66 596.24,331.49 596.57,331.24C596.9,331 597.18,330.68 597.39,330.28C597.61,329.89 597.71,329.38 597.71,328.78C597.71,327.85 597.36,327.09 596.67,326.51C595.98,325.92 594.88,325.63 593.34,325.63C593.1,325.63 592.8,325.65 592.45,325.69" style="fill:rgb(20,58,132);fill-rule:nonzero;"/>
        <path id="XMLID_88_" d="M449.79,322.71L440.62,316.39L440.61,316.42L440.6,316.39L430.88,323.16L421.28,316.39L421.27,316.42L421.26,316.39L411.48,323.12L401.82,316.39L401.81,316.42L401.8,316.39L392.76,322.83C387.41,318.15 377.86,303.84 375.35,298.04C385.58,277.97 401.45,262.18 421.33,252.11C441.74,262.26 458.64,280.13 467.22,298.04C464.2,304.53 453.88,319.45 449.79,322.71M392.34,309.06L403.39,309.06L403.39,298.03L408.97,298.03L408.97,309.06L420.1,309.06L420.1,279.75L408.97,279.75L408.97,290.7L403.39,290.7L403.39,279.75L392.34,279.75L392.34,309.06ZM431.76,309.06L442.75,309.06L442.75,287.02L450.65,287.02L450.65,279.75L423.74,279.75L423.74,287.02L431.76,287.02L431.76,309.06ZM397.09,327.16L401.8,323.73L411.46,330.5L421.26,323.73L431,330.67L440.61,323.73L445.45,327.17C440.58,331.95 430.61,339.36 421.33,343.98C412.79,339.9 404.95,334.2 397.09,327.16" style="fill:rgb(20,58,132);"/>
    </g>
</svg>
